<svg width="52" height="52" viewBox="0 0 52 52" fill="none" xmlns="http://www.w3.org/2000/svg">
<rect width="52" height="52" fill="#E5E5E5"/>
<rect width="755" height="720" transform="translate(-73 -77)" fill="white"/>
<circle cx="26" cy="26" r="26" fill="black"/>
<path d="M0 21.6541V31.8457H1.46306V24.4657H1.55761L4.56335 31.8308H5.77759L8.78334 24.4707H8.87789V31.8457H10.3409V21.6541H8.4748L5.23019 29.5765H5.11076L1.86615 21.6541H0Z" fill="white"/>
<path d="M15.7515 32C17.4186 32 18.598 31.1789 18.9364 29.9348L17.5281 29.681C17.2594 30.4026 16.6124 30.7708 15.7665 30.7708C14.4925 30.7708 13.6366 29.9447 13.5968 28.4717H19.031V27.9442C19.031 25.1823 17.3788 24.1024 15.647 24.1024C13.5171 24.1024 12.1138 25.7247 12.1138 28.0736C12.1138 30.4473 13.4972 32 15.7515 32ZM13.6017 27.357C13.6614 26.2721 14.4477 25.3316 15.657 25.3316C16.8115 25.3316 17.5679 26.1875 17.5729 27.357H13.6017Z" fill="white"/>
<path d="M26.4097 26.0681C26.1012 24.8788 25.1706 24.1024 23.5184 24.1024C21.7916 24.1024 20.5674 25.0131 20.5674 26.3667C20.5674 27.4516 21.2243 28.1731 22.6575 28.4916L23.9514 28.7753C24.6879 28.9395 25.0313 29.2679 25.0313 29.7457C25.0313 30.3379 24.3993 30.8007 23.4239 30.8007C22.5331 30.8007 21.9608 30.4175 21.7817 29.666L20.3435 29.885C20.5923 31.2386 21.717 32 23.4338 32C25.2801 32 26.559 31.0196 26.559 29.6362C26.559 28.5563 25.8723 27.8895 24.4689 27.566L23.2547 27.2873C22.4137 27.0883 22.0504 26.8046 22.0554 26.2871C22.0504 25.6999 22.6874 25.2818 23.5334 25.2818C24.459 25.2818 24.8869 25.7944 25.0611 26.307L26.4097 26.0681Z" fill="white"/>
<path d="M31.7631 24.202H30.1955V22.3707H28.7076V24.202H27.5879V25.3963H28.7076V29.9099C28.7026 31.2983 29.7626 31.9701 30.937 31.9452C31.4098 31.9403 31.7282 31.8507 31.9024 31.786L31.6337 30.5568C31.5342 30.5767 31.35 30.6215 31.1112 30.6215C30.6285 30.6215 30.1955 30.4623 30.1955 29.6014V25.3963H31.7631V24.202Z" fill="white"/>
<path d="M36.5466 32C38.7014 32 40.1097 30.4225 40.1097 28.0587C40.1097 25.68 38.7014 24.1024 36.5466 24.1024C34.3919 24.1024 32.9835 25.68 32.9835 28.0587C32.9835 30.4225 34.3919 32 36.5466 32ZM36.5516 30.7509C35.1433 30.7509 34.4864 29.5217 34.4864 28.0537C34.4864 26.5906 35.1433 25.3465 36.5516 25.3465C37.95 25.3465 38.6069 26.5906 38.6069 28.0537C38.6069 29.5217 37.95 30.7509 36.5516 30.7509Z" fill="white"/>
<path d="M41.2677 21.8182C41.2677 21.5852 41.3245 21.3729 41.4381 21.1811C41.5518 20.9893 41.7045 20.8366 41.8962 20.723C42.088 20.6094 42.3003 20.5526 42.5333 20.5526C42.7236 20.5526 42.8991 20.5916 43.0596 20.6697C43.2201 20.7479 43.3543 20.8551 43.4623 20.9915C43.5716 21.1264 43.6448 21.2805 43.6817 21.4538H43.2854C43.2428 21.299 43.1519 21.1726 43.0127 21.0746C42.8735 20.9766 42.7137 20.9276 42.5333 20.9276C42.3699 20.9276 42.2208 20.968 42.0858 21.049C41.9509 21.1286 41.843 21.2358 41.762 21.3707C41.6824 21.5043 41.6427 21.6534 41.6427 21.8182C41.6427 21.9815 41.6824 22.1307 41.762 22.2656C41.843 22.4006 41.9509 22.5085 42.0858 22.5895C42.2208 22.669 42.3699 22.7088 42.5333 22.7088C42.7137 22.7088 42.8685 22.6598 42.9978 22.5618C43.127 22.4638 43.2137 22.3374 43.2577 22.1825H43.6519C43.6164 22.3558 43.5468 22.5107 43.4431 22.647C43.3394 22.782 43.2094 22.8885 43.0532 22.9666C42.8969 23.0447 42.7236 23.0838 42.5333 23.0838C42.3003 23.0838 42.088 23.027 41.8962 22.9134C41.7045 22.7997 41.5518 22.647 41.4381 22.4553C41.3245 22.2635 41.2677 22.0511 41.2677 21.8182ZM42.4992 24.0682C42.1895 24.0682 41.8983 24.0099 41.6256 23.8935C41.3543 23.777 41.115 23.6158 40.9076 23.4098C40.7016 23.2024 40.5397 22.9631 40.4218 22.6918C40.3053 22.4205 40.2478 22.1293 40.2492 21.8182C40.2506 21.5071 40.3096 21.2159 40.426 20.9446C40.5439 20.6733 40.7059 20.4347 40.9118 20.2287C41.1178 20.0213 41.3564 19.8594 41.6278 19.7429C41.8991 19.6264 42.1895 19.5682 42.4992 19.5682C42.8103 19.5682 43.1015 19.6264 43.3728 19.7429C43.6455 19.8594 43.8841 20.0213 44.0887 20.2287C44.2947 20.4347 44.4559 20.6733 44.5724 20.9446C44.6888 21.2159 44.7478 21.5071 44.7492 21.8182C44.7506 22.1293 44.6931 22.4205 44.5766 22.6918C44.4601 22.9631 44.2989 23.2024 44.093 23.4098C43.887 23.6158 43.6476 23.777 43.3749 23.8935C43.1022 24.0099 42.8103 24.0682 42.4992 24.0682ZM42.4992 23.6932C42.7591 23.6932 43.0028 23.6449 43.23 23.5483C43.4573 23.4503 43.6562 23.3161 43.8266 23.1456C43.9985 22.9737 44.1327 22.7741 44.2293 22.5469C44.3273 22.3196 44.3756 22.0774 44.3742 21.8203C44.3728 21.5604 44.3231 21.3168 44.2251 21.0895C44.1285 20.8622 43.9942 20.6634 43.8224 20.4929C43.6519 20.321 43.4537 20.1868 43.2279 20.0902C43.002 19.9922 42.7591 19.9432 42.4992 19.9432C42.2407 19.9432 41.9985 19.9922 41.7726 20.0902C41.5468 20.1868 41.3479 20.321 41.176 20.4929C41.0056 20.6648 40.8714 20.8643 40.7733 21.0916C40.6753 21.3175 40.6256 21.5604 40.6242 21.8203C40.6228 22.0774 40.6704 22.3196 40.767 22.5469C40.865 22.7727 40.9999 22.9716 41.1718 23.1435C41.3437 23.3139 41.5432 23.4482 41.7705 23.5462C41.9978 23.6442 42.2407 23.6932 42.4992 23.6932Z" fill="white"/>
</svg>
